<?xml version="1.0" standalone="no"?>
<!DOCTYPE svg PUBLIC "-//W3C//DTD SVG 20010904//EN"
 "http://www.w3.org/TR/2001/REC-SVG-20010904/DTD/svg10.dtd">
<svg version="1.0" xmlns="http://www.w3.org/2000/svg"
 width="16.000000pt" height="16.000000pt" viewBox="0 0 16.000000 16.000000"
 preserveAspectRatio="xMidYMid meet">
<metadata>
Created by potrace 1.11, written by Peter Selinger 2001-2013
</metadata>
<g transform="translate(0.000000,16.000000) scale(0.006154,-0.006154)"
fill="#000000" stroke="none">
<path d="M1355 2539 c-5 -6 -22 -8 -48 -3 -38 6 -40 5 -28 -10 12 -14 9 -18
-18 -29 -22 -9 -28 -16 -20 -24 8 -8 8 -17 0 -32 -14 -26 -36 -27 -58 -2 -15
18 -19 18 -37 5 -11 -8 -28 -14 -38 -14 -19 0 -24 -15 -8 -25 20 -13 9 -24
-13 -14 -19 9 -22 16 -19 42 4 28 3 30 -11 19 -17 -15 -37 -8 -37 11 0 8 -20
13 -55 13 -40 2 -55 -2 -55 -11 0 -8 5 -17 10 -20 17 -10 2 -24 -20 -18 -16 4
-20 0 -20 -18 -1 -23 -1 -23 -15 -5 -13 18 -18 18 -57 6 -54 -17 -53 -17 -40
-33 9 -10 8 -18 -3 -33 -8 -11 -15 -14 -15 -6 0 18 -21 14 -50 -8 -30 -24 -40
-25 -40 -5 0 24 -16 17 -30 -12 -11 -23 -14 -25 -17 -10 -5 21 -12 21 -42 -2
-16 -13 -22 -25 -19 -39 4 -15 0 -22 -14 -26 -15 -3 -19 -11 -15 -25 3 -11 -1
-26 -9 -32 -9 -7 -12 -20 -8 -32 4 -14 3 -17 -6 -12 -10 6 -11 -1 -6 -30 7
-35 6 -37 -8 -26 -14 12 -16 10 -16 -7 0 -12 4 -23 9 -26 5 -3 7 -16 3 -28 -4
-17 -2 -20 11 -15 12 5 17 1 17 -14 0 -17 -3 -18 -21 -9 -27 15 -35 6 -21 -24
6 -13 8 -34 5 -47 -5 -18 -3 -21 10 -16 16 6 47 -16 47 -34 0 -5 -9 -9 -20 -9
-11 0 -20 -4 -20 -10 0 -5 6 -10 13 -10 8 0 7 -4 -3 -10 -8 -6 -27 -7 -43 -4
-28 6 -35 -4 -15 -24 8 -8 3 -19 -23 -42 -29 -28 -31 -33 -16 -41 25 -15 22
-38 -4 -32 -16 4 -20 2 -17 -8 3 -8 -2 -19 -11 -26 -12 -9 -12 -12 -3 -13 9 0
7 -8 -7 -26 -12 -15 -21 -37 -21 -50 0 -25 15 -33 23 -11 3 6 6 0 6 -15 1 -15
6 -30 12 -34 8 -5 6 -10 -5 -16 -28 -16 -17 -28 24 -28 44 0 49 -6 23 -26 -17
-11 -16 -14 7 -34 14 -12 26 -17 28 -11 7 21 30 12 25 -10 -5 -16 -2 -20 13
-18 28 5 43 -8 37 -31 -6 -24 6 -26 33 -5 12 9 32 12 56 8 27 -4 42 -1 54 12
13 12 19 13 24 4 5 -7 15 -9 26 -4 11 5 24 7 31 6 6 -1 14 9 16 21 l4 23 8
-22 c8 -25 25 -29 42 -12 8 8 13 7 18 -1 15 -24 -18 -35 -116 -38 -81 -3 -99
-7 -95 -18 4 -11 -4 -14 -35 -14 -61 0 -107 -32 -61 -43 14 -3 13 -6 -8 -15
-14 -6 -34 -18 -45 -27 -17 -13 -17 -17 -6 -25 12 -7 12 -11 2 -24 -8 -9 -22
-16 -32 -16 -10 0 -21 -4 -24 -10 -3 -5 -1 -10 5 -10 6 0 8 -4 5 -10 -3 -5
-14 -10 -24 -10 -10 0 -26 -9 -36 -20 -16 -18 -16 -20 -1 -35 18 -18 20 -28 9
-39 -4 -4 -9 -30 -10 -58 -1 -45 1 -49 18 -45 23 6 25 -6 4 -23 -9 -7 -12 -17
-7 -24 4 -6 7 -26 6 -44 -2 -33 2 -37 24 -23 16 10 66 -34 57 -50 -10 -15 24
-44 36 -32 17 17 47 4 42 -18 -6 -23 5 -24 29 -2 17 15 19 15 32 -3 8 -10 16
-17 18 -14 2 3 8 14 14 25 14 25 47 34 38 11 -9 -24 8 -19 35 9 21 23 25 24
36 9 11 -15 13 -15 27 5 10 14 21 19 32 15 9 -3 16 -2 16 4 0 5 12 7 27 4 21
-4 25 -2 20 12 -9 22 19 21 32 -1 8 -16 11 -14 22 10 10 22 15 25 26 15 10 -8
17 -8 21 -2 4 6 15 14 26 17 14 6 16 10 7 21 -15 18 1 30 28 21 14 -4 21 0 26
15 3 11 15 20 26 20 23 0 23 6 3 -60 -9 -30 -25 -61 -35 -68 -28 -19 -52 -71
-45 -97 3 -13 -1 -42 -9 -65 -8 -23 -15 -59 -15 -79 0 -20 -7 -63 -16 -96 -9
-33 -20 -91 -24 -130 -5 -38 -11 -91 -15 -117 -7 -44 -5 -49 24 -79 l31 -31
128 4 c139 3 178 16 210 70 14 24 14 36 3 110 -8 46 -20 95 -28 110 -7 15 -16
48 -20 73 -5 38 -2 51 20 84 15 22 39 46 54 53 15 7 29 23 31 35 2 12 15 26
30 32 48 19 57 18 54 -6 -4 -25 7 -30 25 -12 13 13 33 4 33 -17 0 -20 18 -17
30 6 12 23 51 23 62 0 5 -12 8 -10 14 8 4 16 12 21 24 17 21 -7 36 10 20 20
-6 4 -10 19 -8 33 3 23 -2 29 -32 39 -19 6 -29 12 -22 12 26 2 10 19 -22 25
-19 4 -36 13 -38 22 -3 13 -6 13 -23 -4 -15 -14 -24 -16 -37 -9 -12 8 -23 6
-42 -6 -14 -9 -32 -17 -41 -17 -20 0 -19 -17 1 -28 12 -7 5 -13 -33 -29 -26
-11 -61 -24 -77 -27 l-29 -7 6 57 c5 51 15 77 65 179 24 49 43 65 76 65 17 0
53 7 80 15 63 19 76 19 76 -1 0 -11 5 -14 16 -10 14 5 16 1 10 -25 -5 -28 -4
-31 15 -26 16 4 23 0 27 -15 5 -20 5 -20 20 -2 13 17 14 16 7 -20 -5 -33 -4
-38 10 -32 26 9 36 -3 22 -26 -9 -16 -9 -22 1 -25 6 -3 12 -12 12 -20 0 -12 3
-13 14 -4 10 9 17 7 27 -5 12 -15 14 -14 20 3 6 15 9 14 20 -12 12 -28 13 -29
16 -8 7 36 39 31 35 -4 -4 -27 6 -30 24 -5 10 14 15 15 25 5 19 -19 36 -16 42
7 4 17 10 20 33 14 24 -6 26 -5 21 15 -6 25 10 28 39 6 26 -20 34 -19 34 5 0
17 4 19 25 14 24 -6 26 -4 19 21 -6 24 -4 26 13 21 17 -6 21 -1 27 33 5 32 9
38 25 34 15 -4 18 0 14 21 -4 21 -2 25 11 20 21 -8 22 19 1 36 -17 14 -21 45
-5 35 6 -3 10 3 10 13 0 11 7 25 15 32 12 10 15 10 15 -4 0 -23 21 -20 27 4 3
11 10 17 16 13 6 -4 8 4 5 20 -4 22 -1 26 25 31 l31 6 -28 28 c-17 19 -24 35
-20 45 4 12 1 17 -11 17 -15 0 -15 2 -4 16 11 14 10 18 -6 30 -17 13 -18 16
-5 24 8 5 19 10 24 10 18 0 -17 30 -36 30 -10 0 -16 5 -13 10 4 6 -5 10 -19
10 -17 0 -26 5 -26 16 0 10 -6 14 -15 10 -8 -3 -15 -1 -15 4 0 6 5 10 11 10 5
0 7 5 4 10 -3 6 -15 10 -26 10 -11 0 -23 10 -28 23 -8 19 -10 20 -16 5 -9 -22
-13 -22 -61 -2 -32 13 -35 17 -21 26 9 5 22 6 27 3 14 -8 60 35 60 56 0 9 11
21 25 27 31 14 32 30 3 34 -28 4 -36 28 -9 28 24 0 25 1 10 34 -9 20 -9 29 2
42 12 15 11 19 -9 32 -12 8 -22 20 -22 27 0 7 -7 18 -15 25 -21 18 -19 32 5
25 21 -7 28 9 10 20 -8 5 -7 11 0 20 16 19 2 38 -21 32 -21 -6 -24 5 -8 34 9
17 7 20 -8 17 -12 -2 -19 4 -21 20 -3 18 -7 21 -16 12 -10 -7 -17 -6 -26 4
-15 19 -5 36 21 36 26 0 24 18 -3 29 -25 10 -64 51 -60 64 1 4 -5 7 -13 7 -8
0 -15 8 -15 18 0 14 -4 13 -19 -7 -12 -16 -21 -20 -25 -12 -4 6 -4 11 -1 11 4
0 -1 7 -9 16 -10 10 -14 24 -10 40 4 16 1 26 -9 30 -9 3 -13 12 -10 20 3 9 0
12 -8 9 -8 -3 -20 4 -27 15 -10 17 -10 20 3 20 22 0 18 21 -4 27 -16 4 -18 11
-14 41 5 31 3 35 -8 25 -22 -22 -46 -15 -77 23 l-29 35 -29 -26 c-27 -25 -29
-25 -41 -9 -7 10 -11 26 -7 36 5 15 0 18 -27 16 -27 -3 -35 2 -47 25 -13 26
-32 37 -32 17 0 -11 -22 -8 -59 7 -16 6 -20 12 -13 17 17 10 15 26 -3 26 -8 0
-15 5 -15 11 0 8 -4 8 -13 0 -15 -12 -37 3 -37 26 0 16 -16 17 -25 2z m295
-1246 c0 -5 -9 -19 -20 -33 -11 -14 -20 -33 -20 -42 0 -10 -6 -15 -12 -13 -7
3 -21 -9 -30 -26 -16 -27 -16 -32 -3 -45 8 -9 15 -19 15 -24 0 -16 -52 -49
-86 -56 -51 -9 -68 9 -61 69 6 48 30 88 69 115 19 14 22 13 33 -1 15 -21 25
-22 25 -2 0 8 6 12 14 9 9 -3 24 7 37 25 22 29 39 40 39 24z m-450 -38 c14
-17 9 -82 -10 -130 l-11 -30 -19 25 c-15 18 -18 34 -13 59 5 28 3 33 -10 28
-10 -4 -17 2 -22 20 -6 26 4 48 12 26 6 -18 32 -16 39 2 8 19 18 19 34 0z"/>
</g>
</svg>
